<?xml version="1.0" encoding="UTF-8"?>
<!DOCTYPE svg PUBLIC "-//W3C//DTD SVG 1.1//EN" "http://www.w3.org/Graphics/SVG/1.1/DTD/svg11.dtd">
<!-- Creator: CorelDRAW 2020 (64 Bit) -->
<svg xmlns="http://www.w3.org/2000/svg" xml:space="preserve" width="20.7726mm" height="16.9962mm" version="1.1" style="shape-rendering:geometricPrecision; text-rendering:geometricPrecision; image-rendering:optimizeQuality; fill-rule:evenodd; clip-rule:evenodd"
viewBox="0 0 185.73 151.96"
 xmlns:xlink="http://www.w3.org/1999/xlink"
 xmlns:xodm="http://www.corel.com/coreldraw/odm/2003">
 <defs>
  <style type="text/css">
   <![CDATA[
    .fil2 {fill:none}
    .fil1 {fill:#002855}
    .fil0 {fill:#023E7D}
    .fil3 {fill:#0466C8}
    .fil5 {fill:#5C677D}
    .fil4 {fill:#979DAC}
    .fil6 {fill:#023E7D;fill-rule:nonzero}
   ]]>
  </style>
    <clipPath id="id0">
     <path d="M-0 0l154.33 0 0 111.15 -154.33 0 0 -111.15z"/>
    </clipPath>
   <clipPath id="id1">
    <path d="M15.66 5.17l123.35 0c5.48,0 9.97,4.49 9.97,9.97l0 81.06c0,5.49 -4.49,9.97 -9.97,9.97l-123.35 0c-5.49,0 -9.97,-4.49 -9.97,-9.97l0 -81.06c0,-5.49 4.49,-9.97 9.97,-9.97zm0.94 8.56l121.47 0c1.42,0 2.58,1.16 2.58,2.58l0 78.72c0,1.42 -1.16,2.58 -2.58,2.58l-121.47 0c-1.42,0 -2.58,-1.16 -2.58,-2.58l0 -78.72c0,-1.42 1.16,-2.58 2.58,-2.58z"/>
   </clipPath>
     <mask id="id2">
  <linearGradient id="id3" gradientUnits="userSpaceOnUse" x1="97.68" y1="126.77" x2="99.41" y2="52.72">
   <stop offset="0" style="stop-opacity:1; stop-color:white"/>
   <stop offset="0.819608" style="stop-opacity:0.501961; stop-color:white"/>
   <stop offset="1" style="stop-opacity:0; stop-color:white"/>
  </linearGradient>
      <rect style="fill:url(#id3)" x="-110.93" y="22.64" width="368.29" height="112.49"/>
     </mask>
   <clipPath id="id4">
    <path d="M177.56 25.28l-101.05 0c-4.49,0 -8.17,4.21 -8.17,9.36l0 76.09c0,5.15 3.68,9.36 8.17,9.36l101.05 0c4.49,0 8.17,-4.21 8.17,-9.36l0 -76.09c0,-5.15 -3.67,-9.36 -8.17,-9.36zm-0.77 8.04l-99.5 0c-1.16,0 -2.12,1.09 -2.12,2.42l0 73.89c0,1.33 0.95,2.42 2.12,2.42l99.5 0c1.17,0 2.12,-1.09 2.12,-2.42l0 -73.89c0,-1.33 -0.95,-2.42 -2.12,-2.42z"/>
   </clipPath>
     <mask id="id5">
  <linearGradient id="id6" gradientUnits="userSpaceOnUse" x1="110.6" y1="139.42" x2="108.74" y2="69.93">
   <stop offset="0" style="stop-opacity:1; stop-color:white"/>
   <stop offset="0.819608" style="stop-opacity:0.501961; stop-color:white"/>
   <stop offset="1" style="stop-opacity:0; stop-color:white"/>
  </linearGradient>
      <rect style="fill:url(#id6)" x="-20.59" y="41.62" width="302.01" height="105.71"/>
     </mask>
   <clipPath id="id7">
    <path d="M36.75 65.33l38.64 0c5.08,0 9.24,4.16 9.24,9.24l0 68.15c0,5.08 -4.16,9.24 -9.24,9.24l-38.64 0c-5.08,0 -9.24,-4.16 -9.24,-9.24l0 -68.15c0,-5.08 4.16,-9.24 9.24,-9.24zm2.94 6.99l32.75 0c2.16,0 3.93,1.77 3.93,3.93l0 64.8c0,2.16 -1.77,3.93 -3.93,3.93l-32.75 0c-2.16,0 -3.93,-1.77 -3.93,-3.93l0 -64.8c0,-2.16 1.77,-3.93 3.93,-3.93z"/>
   </clipPath>
     <mask id="id8">
  <linearGradient id="id9" gradientUnits="userSpaceOnUse" x1="96.65" y1="186.97" x2="97.72" y2="112.9">
   <stop offset="0" style="stop-opacity:1; stop-color:white"/>
   <stop offset="0.819608" style="stop-opacity:0.501961; stop-color:white"/>
   <stop offset="1" style="stop-opacity:0; stop-color:white"/>
  </linearGradient>
      <rect style="fill:url(#id9)" x="-242.3" y="82.82" width="596.74" height="112.49"/>
     </mask>
   <clipPath id="id10" style="clip-rule:nonzero">
    <path d="M20.54 32.44l10.59 -4.47 0.96 2.98 -7.73 3.02 7.73 3.02 -0.96 2.98 -10.59 -4.47 0 -3.04z"/>
   </clipPath>
     <mask id="id11">
  <linearGradient id="id12" gradientUnits="userSpaceOnUse" x1="87.31" y1="50.29" x2="87.55" y2="33.24">
   <stop offset="0" style="stop-opacity:1; stop-color:white"/>
   <stop offset="0.819608" style="stop-opacity:0.501961; stop-color:white"/>
   <stop offset="1" style="stop-opacity:0; stop-color:white"/>
  </linearGradient>
      <rect style="fill:url(#id12)" x="8.58" y="25.62" width="138.76" height="27.27"/>
     </mask>
   <clipPath id="id13" style="clip-rule:nonzero">
    <path d="M34.77 45.89l-3.77 0 8.28 -23.84 3.71 0 -8.22 23.84z"/>
   </clipPath>
     <mask id="id14">
  <linearGradient id="id15" gradientUnits="userSpaceOnUse" x1="87.31" y1="50.29" x2="87.55" y2="33.24">
   <stop offset="0" style="stop-opacity:1; stop-color:white"/>
   <stop offset="0.819608" style="stop-opacity:0.501961; stop-color:white"/>
   <stop offset="1" style="stop-opacity:0; stop-color:white"/>
  </linearGradient>
      <rect style="fill:url(#id15)" x="8.58" y="25.62" width="138.76" height="27.27"/>
     </mask>
   <clipPath id="id16" style="clip-rule:nonzero">
    <path d="M53.46 35.48l-10.59 4.47 -0.96 -2.98 7.73 -3.02 -7.73 -3.02 0.96 -2.98 10.59 4.47 0 3.04z"/>
   </clipPath>
     <mask id="id17">
  <linearGradient id="id18" gradientUnits="userSpaceOnUse" x1="87.31" y1="50.29" x2="87.55" y2="33.24">
   <stop offset="0" style="stop-opacity:1; stop-color:white"/>
   <stop offset="0.819608" style="stop-opacity:0.501961; stop-color:white"/>
   <stop offset="1" style="stop-opacity:0; stop-color:white"/>
  </linearGradient>
      <rect style="fill:url(#id18)" x="8.58" y="25.62" width="138.76" height="27.27"/>
     </mask>
 </defs>
 <g id="Camada_x0020_1">
  <metadata id="CorelCorpID_0Corel-Layer"/>
  <g id="_2324272977024">
   <g style="clip-path:url(#id0)">
    <image x="-0" y="0" width="154.33" height="111.15" xlink:href="FaviconSite_Images\FaviconSite_ImgID1.png"/>
   </g>
  </g>
  <path class="fil0" d="M14.45 5.05l125.43 0c5.17,0 9.4,4.23 9.4,9.4l0 82.25c0,5.17 -4.23,9.4 -9.4,9.4l-125.43 0c-5.17,0 -9.4,-4.23 -9.4,-9.4l0 -82.25c0,-5.17 4.23,-9.4 9.4,-9.4zm1.78 8.44l121.87 0c1.46,0 2.66,1.2 2.66,2.66l0 78.85c0,1.46 -1.2,2.66 -2.66,2.66l-121.87 0c-1.46,0 -2.66,-1.2 -2.66,-2.66l0 -78.85c0,-1.46 1.2,-2.66 2.66,-2.66z"/>
  <path class="fil0" d="M15.66 5.17l123.35 0c5.48,0 9.97,4.49 9.97,9.97l0 81.06c0,5.49 -4.49,9.97 -9.97,9.97l-123.35 0c-5.49,0 -9.97,-4.49 -9.97,-9.97l0 -81.06c0,-5.49 4.49,-9.97 9.97,-9.97zm0.94 8.56l121.47 0c1.42,0 2.58,1.16 2.58,2.58l0 78.72c0,1.42 -1.16,2.58 -2.58,2.58l-121.47 0c-1.42,0 -2.58,-1.16 -2.58,-2.58l0 -78.72c0,-1.42 1.16,-2.58 2.58,-2.58z"/>
  <g style="clip-path:url(#id1)">
   <g id="_2324272978560">
    <path id="1" class="fil1" style="mask:url(#id2)" d="M-104.84 134.23c120.43,-6.6 240.87,-13.2 361.3,-19.79 -0.5,-23.88 -7.11,-67.03 -7.61,-90.91 -195.43,62.18 -249.04,2.65 -358.89,32.1 0.5,23.88 4.7,54.73 5.2,78.61z"/>
   </g>
  </g>
  <path class="fil2" d="M15.66 5.17l123.35 0c5.48,0 9.97,4.49 9.97,9.97l0 81.06c0,5.49 -4.49,9.97 -9.97,9.97l-123.35 0c-5.49,0 -9.97,-4.49 -9.97,-9.97l0 -81.06c0,-5.49 4.49,-9.97 9.97,-9.97zm0.94 8.56l121.47 0c1.42,0 2.58,1.16 2.58,2.58l0 78.72c0,1.42 -1.16,2.58 -2.58,2.58l-121.47 0c-1.42,0 -2.58,-1.16 -2.58,-2.58l0 -78.72c0,-1.42 1.16,-2.58 2.58,-2.58z"/>
  <path class="fil3" d="M177.56 25.28l-101.05 0c-4.49,0 -8.17,4.21 -8.17,9.36l0 76.09c0,5.15 3.68,9.36 8.17,9.36l101.05 0c4.49,0 8.17,-4.21 8.17,-9.36l0 -76.09c0,-5.15 -3.67,-9.36 -8.17,-9.36zm-0.77 8.04l-99.5 0c-1.16,0 -2.12,1.09 -2.12,2.42l0 73.89c0,1.33 0.95,2.42 2.12,2.42l99.5 0c1.17,0 2.12,-1.09 2.12,-2.42l0 -73.89c0,-1.33 -0.95,-2.42 -2.12,-2.42z"/>
  <g style="clip-path:url(#id4)">
   <g id="_2324272976880">
    <path id="1" class="fil0" style="mask:url(#id5)" d="M276.27 146.44c-98.65,-6.2 -197.31,-12.39 -295.96,-18.58 0.41,-22.42 5.83,-62.92 6.23,-85.34 160.09,58.37 204.01,2.49 293.99,30.13 -0.41,22.42 -3.85,51.38 -4.26,73.79z"/>
   </g>
  </g>
  <path class="fil2" d="M177.56 25.28l-101.05 0c-4.49,0 -8.17,4.21 -8.17,9.36l0 76.09c0,5.15 3.68,9.36 8.17,9.36l101.05 0c4.49,0 8.17,-4.21 8.17,-9.36l0 -76.09c0,-5.15 -3.67,-9.36 -8.17,-9.36zm-0.77 8.04l-99.5 0c-1.16,0 -2.12,1.09 -2.12,2.42l0 73.89c0,1.33 0.95,2.42 2.12,2.42l99.5 0c1.17,0 2.12,-1.09 2.12,-2.42l0 -73.89c0,-1.33 -0.95,-2.42 -2.12,-2.42z"/>
  <path class="fil4" d="M36.75 65.33l38.64 0c5.08,0 9.24,4.16 9.24,9.24l0 68.15c0,5.08 -4.16,9.24 -9.24,9.24l-38.64 0c-5.08,0 -9.24,-4.16 -9.24,-9.24l0 -68.15c0,-5.08 4.16,-9.24 9.24,-9.24zm2.94 6.99l32.75 0c2.16,0 3.93,1.77 3.93,3.93l0 64.8c0,2.16 -1.77,3.93 -3.93,3.93l-32.75 0c-2.16,0 -3.93,-1.77 -3.93,-3.93l0 -64.8c0,-2.16 1.77,-3.93 3.93,-3.93z"/>
  <g style="clip-path:url(#id7)">
   <g id="_2324272979760">
    <path id="1" class="fil5" style="mask:url(#id8)" d="M-232.97 194.42c195.5,-6.6 391.01,-13.2 586.51,-19.79 -0.81,-23.88 -11.55,-67.03 -12.35,-90.91 -317.25,62.18 -404.28,2.65 -582.59,32.1 0.81,23.88 7.63,54.73 8.44,78.61z"/>
   </g>
  </g>
  <path class="fil2" d="M36.75 65.33l38.64 0c5.08,0 9.24,4.16 9.24,9.24l0 68.15c0,5.08 -4.16,9.24 -9.24,9.24l-38.64 0c-5.08,0 -9.24,-4.16 -9.24,-9.24l0 -68.15c0,-5.08 4.16,-9.24 9.24,-9.24zm2.94 6.99l32.75 0c2.16,0 3.93,1.77 3.93,3.93l0 64.8c0,2.16 -1.77,3.93 -3.93,3.93l-32.75 0c-2.16,0 -3.93,-1.77 -3.93,-3.93l0 -64.8c0,-2.16 1.77,-3.93 3.93,-3.93z"/>
  <path class="fil6" d="M20.54 32.44l10.59 -4.47 0.96 2.98 -7.73 3.02 7.73 3.02 -0.96 2.98 -10.59 -4.47 0 -3.04zm14.23 13.45l-3.77 0 8.28 -23.84 3.71 0 -8.22 23.84zm18.68 -10.41l-10.59 4.47 -0.96 -2.98 7.73 -3.02 -7.73 -3.02 0.96 -2.98 10.59 4.47 0 3.04z"/>
  <g style="clip-path:url(#id10)">
   <g id="_2324272981200">
    <path id="1" class="fil1" style="mask:url(#id11)" d="M11.42 52c45.01,-1.52 90.02,-3.04 135.03,-4.56 -0.19,-5.5 -2.66,-15.43 -2.85,-20.93 -73.04,14.32 -93.07,0.61 -134.13,7.39 0.19,5.5 1.76,12.6 1.94,18.1z"/>
   </g>
  </g>
  <g style="clip-path:url(#id13)">
   <g id="_2324272981200">
    <path class="fil1" style="mask:url(#id14)" d="M11.42 52c45.01,-1.52 90.02,-3.04 135.03,-4.56 -0.19,-5.5 -2.66,-15.43 -2.85,-20.93 -73.04,14.32 -93.07,0.61 -134.13,7.39 0.19,5.5 1.76,12.6 1.94,18.1z"/>
   </g>
  </g>
  <g style="clip-path:url(#id16)">
   <g id="_2324272981200">
    <path class="fil1" style="mask:url(#id17)" d="M11.42 52c45.01,-1.52 90.02,-3.04 135.03,-4.56 -0.19,-5.5 -2.66,-15.43 -2.85,-20.93 -73.04,14.32 -93.07,0.61 -134.13,7.39 0.19,5.5 1.76,12.6 1.94,18.1z"/>
   </g>
  </g>
 </g>
</svg>
